<?xml version="1.0" encoding="UTF-8" standalone="no"?>
<!-- Created with Inkscape (http://www.inkscape.org/) -->

<svg
   xmlns:dc="http://purl.org/dc/elements/1.1/"
   xmlns:cc="http://creativecommons.org/ns#"
   xmlns:rdf="http://www.w3.org/1999/02/22-rdf-syntax-ns#"
   xmlns:svg="http://www.w3.org/2000/svg"
   xmlns="http://www.w3.org/2000/svg"
   xmlns:sodipodi="http://sodipodi.sourceforge.net/DTD/sodipodi-0.dtd"
   xmlns:inkscape="http://www.inkscape.org/namespaces/inkscape"
   width="210mm"
   height="297mm"
   viewBox="0 0 210 297"
   version="1.1"
   id="svg8"
   inkscape:version="0.92.2 (5c3e80d, 2017-08-06)"
   sodipodi:docname="210.svg">
  <defs
     id="defs2" />
  <sodipodi:namedview
     id="base"
     pagecolor="#ffffff"
     bordercolor="#666666"
     borderopacity="1.0"
     inkscape:pageopacity="0.0"
     inkscape:pageshadow="2"
     inkscape:zoom="0.98994949"
     inkscape:cx="211.60346"
     inkscape:cy="768.62942"
     inkscape:document-units="mm"
     inkscape:current-layer="layer1"
     showgrid="false"
     showguides="false"
     inkscape:window-width="1920"
     inkscape:window-height="1017"
     inkscape:window-x="-8"
     inkscape:window-y="-8"
     inkscape:window-maximized="1" />
  <metadata
     id="metadata5">
    <rdf:RDF>
      <cc:Work
         rdf:about="">
        <dc:format>image/svg+xml</dc:format>
        <dc:type
           rdf:resource="http://purl.org/dc/dcmitype/StillImage" />
        <dc:title></dc:title>
      </cc:Work>
    </rdf:RDF>
  </metadata>
  <g
     inkscape:label="Layer 1"
     inkscape:groupmode="layer"
     id="layer1">
    <path
       style="fill:none;stroke:#000000;stroke-width:0.32686666px;stroke-linecap:butt;stroke-linejoin:miter;stroke-opacity:1"
       d="m 19.115862,63.108407 42.32577,-2.225485 -1.763576,27.447611 -32.038253,21.142077 30.862537,-14.465628 0.329589,11.512638 -6.633024,1.28389 4.798131,2.20184 0.329589,10.59467 -37.916835,0.3709 1.763576,-21.512975 32.038255,-27.447611 -31.744328,15.949288 -0.380019,-13.818795 4.400282,-6.081667 -5.160319,1.655464 z"
       id="path4747"
       inkscape:connector-curvature="0"
       sodipodi:nodetypes="ccccccccccccccccc" />
    <path
       style="fill:none;stroke:#000000;stroke-width:0.3616311px;stroke-linecap:butt;stroke-linejoin:miter;stroke-opacity:1"
       d="m 61.75316,87.73769 0.98385,-15.609814 8.947412,-3.15348 -8.722603,0.09275 0.629467,-8.069199 51.076694,0.741994 -15.867126,59.187309 -11.085088,-1.04935 3.539623,-10.49339 -9.686202,10.09991 -20.495767,0.13116 34.15605,-41.851355 z"
       id="path4749"
       inkscape:connector-curvature="0"
       sodipodi:nodetypes="ccccccccccccc" />
    <g
       id="g4757"
       transform="matrix(1.4533233,0,0,1.4533233,-53.687486,-30.995375)">
      <path
         sodipodi:nodetypes="ccccccc"
         inkscape:connector-curvature="0"
         id="path4751"
         d="m 117.39528,64.012034 -10.88335,40.652076 34.00251,7.18957 -3.36619,-9.60451 4.6302,5.76259 7.63275,-36.366769 z"
         style="fill:none;stroke:#000000;stroke-width:0.26458332px;stroke-linecap:butt;stroke-linejoin:miter;stroke-opacity:1" />
      <path
         inkscape:connector-curvature="0"
         id="path4753"
         d="m 122.55653,97.381525 -0.26726,-20.579752 2.93996,4.276312 -2.6727,-6.949008 13.89802,2.405425 -5.07812,24.054258 z"
         style="fill:none;stroke:#000000;stroke-width:0.26458332px;stroke-linecap:butt;stroke-linejoin:miter;stroke-opacity:1" />
    </g>
  </g>
</svg>
